PathFileType	4	(X/Y/Z)	Patient4_TMGait_0pt4_03_right_31.trc.trc
DataRate	CameraRate	NumFrames	NumMarkers	Units	OrigDataRate	OrigDataStartFrame	OrigNumFrames
75.675675675676	75.675675675676	4	33	mm	75.675675675676	89	       141
Frame#	Time	Sacral			L.Shoulder			Chest			R.Shoulder			Neck			R.ASIS			L.ASIS			R.Thigh.Superior			R.Thigh.Lateral			R.Thigh.Inferior			R.Patella			L.Thigh.Superior			L.Thigh.Lateral			L.Thigh.Inferior			L.Patella			L.Shank.Superior			L.Shank.Lateral			L.Shank.Inferior			R.Shank.Superior			R.Shank.Lateral			R.Shank.Inferior			R.Heel			R.Midfoot.Superior			R.Midfoot.Lateral			R.Toe			L.Heel			L.Midfoot.Lateral			L.Midfoot.Superior			L.Toe			L.Elbow			L.Wrist			R.Elbow			R.Wrist			
		X1	Y1	Z1	X2	Y2	Z2	X3	Y3	Z3	X4	Y4	Z4	X5	Y5	Z5	X6	Y6	Z6	X7	Y7	Z7	X8	Y8	Z8	X9	Y9	Z9	X10	Y10	Z10	X11	Y11	Z11	X12	Y12	Z12	X13	Y13	Z13	X14	Y14	Z14	X15	Y15	Z15	X16	Y16	Z16	X17	Y17	Z17	X18	Y18	Z18	X19	Y19	Z19	X20	Y20	Z20	X21	Y21	Z21	X22	Y22	Z22	X23	Y23	Z23	X24	Y24	Z24	X25	Y25	Z25	X26	Y26	Z26	X27	Y27	Z27	X28	Y28	Z28	X29	Y29	Z29	X30	Y30	Z30	X31	Y31	Z31	X32	Y32	Z32	X33	Y33	Z33	

89	41.392857142857	875.446073736386	1000.844577745507	448.380203604504	1008.455108119625	1427.220470198310	236.233757987047	1137.725514839339	1369.264200200739	381.449420133395	1079.071161603710	1444.647173187859	564.685218951791	1009.046672286403	1493.244650424329	392.183979972624	1115.858138373401	941.425572130281	538.175608900438	1073.204211002031	962.235811222809	267.626469324598	1155.660161443222	738.236693772988	515.757618087172	1084.750965698721	627.754049441707	589.819965056900	1159.470521937022	570.258175058357	509.693408977634	1155.283370543352	463.044914543766	531.831538111790	1142.143484911507	760.609651101605	291.075634985260	1060.452922280837	636.489473345347	237.923646178337	1157.730579778242	567.604073783012	291.257665873219	1165.010847400720	498.272457375723	299.707642169895	1141.933211056012	423.647794226740	294.128827689428	1055.080036253570	304.259552760577	247.922772676461	1118.215186604469	196.269109195151	316.113331960827	1082.687270013986	392.959355015596	542.425655961160	970.357327823561	344.367347794146	612.602323411162	959.135564447849	235.841697506146	560.871802719157	761.077578241431	149.002763576353	546.635533260841	937.253885786687	119.657050954163	575.469900629746	833.278718913473	102.331015448741	617.557536518820	1022.156766817764	33.330153449419	600.795182839385	1000.831646236644	38.209428441485	365.343570877344	1071.014068764586	34.874593569950	281.223642161000	1154.593115745138	97.172248579959	304.926521463835	1282.350335592015	47.429495669872	271.440557098454	961.142326657597	1072.628466977881	132.578224221630	1067.294671980912	833.265962060862	104.255176771145	1153.198104704869	1105.401866500399	682.199780506720	1382.045479412562	1034.560661868262	594.718960894668	
90	41.406071428571	874.085602606439	1001.147098838546	445.056919197642	1009.887768139897	1427.412453269178	233.050644558748	1137.517736200228	1369.415538221857	379.717443430021	1077.101342983097	1445.074232990785	562.272998594030	1008.918472100061	1493.618029157595	389.065317483972	1113.807332875711	941.849027091195	536.549159524944	1073.006726133474	962.664952082425	265.800060376331	1159.428722789351	741.434323993480	513.754280569073	1091.840735070133	629.291960084986	588.046938122102	1168.687462305056	573.404239464244	508.291698248033	1166.200265058616	465.156957518967	530.761585096600	1140.005962357256	759.897762782991	288.971144681469	1057.297442549588	636.680307550056	235.895894748615	1153.613725327416	567.010617045834	289.748787481996	1160.148167228152	497.794746210360	298.302370153111	1137.095358151901	423.333579195523	292.776551153070	1050.119995177016	303.927728070301	246.765058044966	1113.052093884600	196.117166870315	315.507780898229	1092.087510233969	395.350454721707	541.115557507771	978.101445306013	350.108710987126	610.950893755300	964.319921403421	241.615765169951	559.919387768987	764.183209409878	162.176596466323	545.370955258158	938.978325026665	124.803425979505	574.651499682304	833.990707066527	112.253297807536	616.512380953348	1019.483346648785	33.124070284495	600.443980968275	995.477112819968	38.177767560932	365.230189378380	1065.641824105096	34.786649296078	281.080188546574	1149.241397408877	97.057421780401	304.762167654259	1277.012731779674	47.324672249507	271.372545302900	967.643912620477	1072.771548448322	127.012455164949	1080.824169583758	836.513249554278	98.873664231686	1145.149489715840	1104.457550941462	680.435414712426	1371.706194236024	1020.427577339583	597.368813433088	
91	41.419285714286	872.637551736695	1001.417647469385	441.920274286353	1011.245444139071	1427.507462481270	230.057358717111	1137.222228954310	1369.514046877434	378.176653959705	1075.043717912886	1445.464500217073	560.032134773974	1008.776588654983	1493.958495712901	386.097643299708	1111.710962501826	942.268526259616	535.036730718892	1072.674094080407	963.104061080603	264.121413025416	1162.949046882001	744.868935050361	511.796051852733	1098.691779927768	631.161522855813	586.359805697345	1177.559311759836	576.972266523325	506.970193521676	1176.919994830716	467.810016957196	529.632505616985	1137.846747694405	759.257891331853	287.130822206500	1054.196114737873	636.869488194822	234.064811698368	1149.584050604594	566.453526938039	288.439087798378	1155.392214247942	497.335431494172	297.112503799631	1132.353337974095	423.044421087136	291.608734809000	1045.251956064000	303.656406229813	245.733304215522	1107.934968073456	195.977718111099	314.978174704014	1101.538465614131	398.104821808592	539.782410707459	986.129206705312	355.864532129776	609.287464263268	970.019172684509	247.462359886570	558.873441877247	768.269722279752	174.793034188086	544.012575377521	941.564688054446	130.153593507793	573.707379970716	835.790288252020	121.952984250080	615.336989619716	1017.950447223608	33.272472665156	599.883557614841	990.144723067752	38.155203322383	365.120651619592	1060.299924601460	34.723474299522	280.948700396629	1143.914240103349	96.966790078381	304.618697771218	1271.695194669539	47.243978453434	271.311187636622	974.434198300927	1072.911188721146	121.583652814738	1094.359645170140	839.879402022671	93.742453885810	1136.471506775042	1103.476398598815	679.012444087663	1359.956685538334	1006.181113255220	600.925224906053	
92	41.432500000000	871.118752375870	1001.686880935037	438.956829996690	1012.507350647446	1427.542554758138	227.263052140503	1136.831578631648	1369.597376820236	376.820268347302	1072.899576928961	1445.843316041767	557.960643425419	1008.607500539614	1494.293992671273	383.285598054496	1109.606240036456	942.731847173807	533.637960923170	1072.241452521388	963.552954443515	262.583386904854	1166.121270046462	748.498956502764	509.895772424919	1105.171382141462	633.356485220817	584.769814448747	1185.916044401002	580.927721693719	505.716155326696	1187.279812367697	470.973366514318	528.477069177166	1135.708196451617	758.678955052051	285.509235118097	1051.145146056671	637.044724750631	232.443546157345	1145.654727147000	565.918018521659	287.302660226529	1150.765505047543	496.892157521832	296.128772715272	1127.722777048008	422.776657241889	290.624988251049	1040.480891582877	303.446429893647	244.832458779610	1102.865128621150	195.847827280040	314.526847990702	1110.906485043845	401.186732079220	538.471728944441	994.314676234380	361.487711130899	607.652642610858	976.232348861991	253.191398086050	557.786438501775	773.339115530147	186.362478899541	542.621317553630	945.144309986851	135.451130319886	572.670527844514	838.793331270525	130.999182927955	614.067197902716	1017.852262963404	33.813490610031	599.084800569004	984.828419547929	38.140273007653	365.017274950497	1054.981927316224	34.681558312697	280.830052851196	1138.605853617517	96.897074575146	304.495854197794	1266.392401314756	47.182274521013	271.254907340464	981.467895200025	1073.088447489200	116.347315880583	1107.860558986246	843.391420967882	88.890642706817	1127.260370735836	1102.545364393757	677.929778876030	1346.810626938368	991.875119677921	605.348334277885	
